<svg xmlns="http://www.w3.org/2000/svg" xmlns:xlink="http://www.w3.org/1999/xlink" width="189" zoomAndPan="magnify" viewBox="0 0 141.75 141.750002" height="189" preserveAspectRatio="xMidYMid meet" version="1.0"><defs><clipPath id="db9159330f"><path d="M 18.324219 19.296875 L 123.058594 19.296875 L 123.058594 121.863281 L 18.324219 121.863281 Z M 18.324219 19.296875 " clip-rule="nonzero"/></clipPath><clipPath id="2912d0c8fe"><path d="M 94 89 L 140.917969 89 L 140.917969 140.917969 L 94 140.917969 Z M 94 89 " clip-rule="nonzero"/></clipPath><clipPath id="60dfa2c1ba"><path d="M 0.917969 89 L 48 89 L 48 140.917969 L 0.917969 140.917969 Z M 0.917969 89 " clip-rule="nonzero"/></clipPath><clipPath id="fbb18dcf45"><path d="M 89 0.917969 L 140.917969 0.917969 L 140.917969 53 L 89 53 Z M 89 0.917969 " clip-rule="nonzero"/></clipPath><clipPath id="30a6c3c096"><path d="M 0.917969 0.917969 L 53 0.917969 L 53 53 L 0.917969 53 Z M 0.917969 0.917969 " clip-rule="nonzero"/></clipPath></defs><g clip-path="url(#db9159330f)"><path fill="#ffb200" d="M 123.136719 72.128906 C 122.5625 42.960938 98.429688 19.292969 69.261719 19.292969 C 43.761719 19.292969 22.832031 37.347656 18.324219 61.347656 C 19.917969 56.175781 23.03125 49.523438 29.085938 43.890625 C 40.953125 32.820312 49.949219 31.625 49.949219 31.625 C 22.921875 45.855469 15.984375 79.578125 25.726562 99.707031 C 31.40625 108.703125 39.695312 115.929688 49.484375 120.324219 C 52.222656 120.988281 54.875 121.097656 54.808594 117.410156 L 54.832031 117.410156 C 53.171875 111.089844 49.507812 99 47.695312 97.300781 C 45.328125 95.089844 39.980469 96.285156 37.839844 93.609375 C 35.695312 90.914062 27.761719 56.949219 27.761719 56.949219 C 27.761719 56.949219 28.46875 56.132812 29.199219 56.417969 C 29.925781 56.75 38.722656 87.023438 39.605469 87.710938 C 40.488281 88.394531 40.335938 87.996094 40.84375 88.019531 C 41.21875 87.910156 41.75 87.84375 41.859375 86.429688 C 41.972656 84.992188 32.160156 56.726562 32.136719 56.261719 C 32.09375 55.777344 31.980469 54.296875 33.085938 54.496094 C 34.191406 54.675781 44.601562 84.085938 45.242188 84.816406 C 45.902344 85.542969 46.28125 85.367188 46.765625 85.324219 C 47.097656 85.058594 47.382812 85.035156 47.382812 84.109375 C 47.40625 83.203125 35.9375 54.121094 36.644531 53.28125 C 37.351562 52.417969 38.257812 53.613281 38.542969 54.011719 C 38.832031 54.40625 50.015625 82.207031 51.03125 83.203125 C 52.023438 84.195312 52.445312 83.929688 52.796875 83.796875 C 53.21875 83.445312 53.371094 83.820312 53.617188 82.738281 C 53.835938 81.632812 40.554688 52.992188 40.886719 52.285156 C 41.242188 51.601562 42.34375 51.777344 42.34375 51.777344 C 42.34375 51.777344 58.632812 82.738281 58.785156 86.117188 C 58.941406 89.523438 54.011719 92.371094 53.703125 95.554688 C 53.4375 98.007812 59.230469 111.242188 62.542969 118.050781 C 63.25 119.332031 64.445312 121.078125 66.011719 121.742188 C 68.644531 122.867188 69.703125 121.808594 69.726562 119.15625 L 70.035156 89.277344 C 69.925781 88.261719 69.746094 87.269531 69.394531 86.539062 C 68.996094 85.765625 68.421875 85.167969 67.890625 84.769531 C 62.675781 83.023438 58.851562 77.964844 58.675781 68.96875 C 58.476562 57.566406 64.199219 44.132812 71.605469 44.132812 C 79.007812 44.132812 85.261719 57.566406 85.480469 68.96875 C 85.660156 77.457031 82.429688 82.429688 77.746094 84.4375 C 77.195312 84.925781 76.441406 85.675781 75.980469 86.582031 C 75.671875 87.222656 75.515625 88.351562 75.46875 89.457031 L 76.621094 118.558594 L 76.640625 118.558594 C 76.640625 118.558594 77.570312 121.453125 79.140625 121.363281 C 79.933594 121.320312 80.464844 120.324219 80.796875 119.375 L 80.773438 119.375 C 80.773438 119.375 80.886719 118.976562 81.105469 118.269531 C 81.195312 117.851562 81.238281 117.5625 81.238281 117.5625 L 81.304688 117.585938 C 84.023438 108.4375 96.242188 67.160156 97.171875 63.136719 C 98.230469 58.605469 101.058594 48.265625 104.132812 50.011719 C 107.203125 51.753906 108.417969 64.816406 106.585938 79.089844 C 104.730469 93.367188 101.371094 101.832031 97.921875 105.386719 C 94.453125 108.925781 90.429688 106.535156 88.816406 110.957031 C 87.734375 113.960938 86.984375 117.320312 86.609375 119.199219 C 86.71875 119.816406 87.140625 121.230469 88.597656 121.453125 C 89.347656 121.585938 90.210938 121.410156 90.960938 121.1875 C 91.558594 120.921875 92.175781 120.679688 92.773438 120.390625 C 111.046875 112.148438 123.554688 93.652344 123.136719 72.128906 " fill-opacity="1" fill-rule="evenodd"/></g><g clip-path="url(#2912d0c8fe)"><path fill="#000000" d="M 136.253906 89.585938 C 133.671875 89.585938 131.585938 91.671875 131.585938 94.25 L 131.585938 131.585938 L 99.207031 131.585938 C 96.625 131.585938 94.539062 133.671875 94.539062 136.253906 C 94.539062 138.832031 96.625 140.917969 99.207031 140.917969 L 136.253906 140.917969 C 138.832031 140.917969 140.917969 138.832031 140.917969 136.253906 L 140.917969 94.25 C 140.917969 91.671875 138.832031 89.585938 136.253906 89.585938 Z M 136.253906 89.585938 " fill-opacity="1" fill-rule="nonzero"/></g><g clip-path="url(#60dfa2c1ba)"><path fill="#000000" d="M 5.582031 140.917969 L 42.628906 140.917969 C 45.203125 140.917969 47.292969 138.832031 47.292969 136.253906 C 47.292969 133.671875 45.203125 131.585938 42.628906 131.585938 L 10.25 131.585938 L 10.25 94.25 C 10.25 91.671875 8.160156 89.585938 5.582031 89.585938 C 3.003906 89.585938 0.917969 91.671875 0.917969 94.25 L 0.917969 136.253906 C 0.917969 138.832031 3.003906 140.917969 5.582031 140.917969 Z M 5.582031 140.917969 " fill-opacity="1" fill-rule="nonzero"/></g><g clip-path="url(#fbb18dcf45)"><path fill="#000000" d="M 136.253906 0.917969 L 94.25 0.917969 C 91.671875 0.917969 89.585938 3.003906 89.585938 5.582031 C 89.585938 8.164062 91.671875 10.25 94.25 10.25 L 131.585938 10.25 L 131.585938 47.582031 C 131.585938 50.164062 133.671875 52.25 136.253906 52.25 C 138.832031 52.25 140.917969 50.164062 140.917969 47.582031 L 140.917969 5.582031 C 140.917969 3.003906 138.832031 0.917969 136.253906 0.917969 Z M 136.253906 0.917969 " fill-opacity="1" fill-rule="nonzero"/></g><g clip-path="url(#30a6c3c096)"><path fill="#000000" d="M 5.582031 52.25 C 8.160156 52.25 10.25 50.164062 10.25 47.582031 L 10.25 10.25 L 47.582031 10.25 C 50.160156 10.25 52.25 8.164062 52.25 5.582031 C 52.25 3.003906 50.160156 0.917969 47.582031 0.917969 L 5.582031 0.917969 C 3.003906 0.917969 0.917969 3.003906 0.917969 5.582031 L 0.917969 47.582031 C 0.917969 50.164062 3.003906 52.25 5.582031 52.25 Z M 5.582031 52.25 " fill-opacity="1" fill-rule="nonzero"/></g></svg>